<mxfile host="app.diagrams.net" modified="2021-05-15T17:03:11.274Z" agent="5.0 (Windows)" etag="WTNn1fJN4zV0qLgnfJAv" version="14.6.13" type="github">
  <diagram id="vnupTKT_s7-oRU77ES_9" name="Page-1">
    <mxGraphModel dx="2748" dy="1156" grid="1" gridSize="10" guides="1" tooltips="1" connect="1" arrows="1" fold="1" page="1" pageScale="1" pageWidth="827" pageHeight="1169" math="0" shadow="0">
      <root>
        <mxCell id="0" />
        <mxCell id="1" parent="0" />
        <mxCell id="NzL9fyNju561TQUgWMmM-1" value="" style="rounded=0;whiteSpace=wrap;html=1;" parent="1" vertex="1">
          <mxGeometry x="100" y="20" width="640" height="480" as="geometry" />
        </mxCell>
        <mxCell id="NzL9fyNju561TQUgWMmM-2" value="" style="endArrow=classic;startArrow=classic;html=1;" parent="1" edge="1">
          <mxGeometry width="50" height="50" relative="1" as="geometry">
            <mxPoint x="100" y="530" as="sourcePoint" />
            <mxPoint x="740" y="530" as="targetPoint" />
          </mxGeometry>
        </mxCell>
        <mxCell id="NzL9fyNju561TQUgWMmM-3" value="640" style="text;html=1;align=center;verticalAlign=middle;resizable=0;points=[];;labelBackgroundColor=#ffffff;" parent="NzL9fyNju561TQUgWMmM-2" vertex="1" connectable="0">
          <mxGeometry x="-0.0732" y="1" relative="1" as="geometry">
            <mxPoint as="offset" />
          </mxGeometry>
        </mxCell>
        <mxCell id="NzL9fyNju561TQUgWMmM-4" value="480" style="endArrow=classic;startArrow=classic;html=1;" parent="1" edge="1">
          <mxGeometry width="50" height="50" relative="1" as="geometry">
            <mxPoint x="70" y="490" as="sourcePoint" />
            <mxPoint x="70" y="20" as="targetPoint" />
          </mxGeometry>
        </mxCell>
        <mxCell id="NzL9fyNju561TQUgWMmM-5" value="" style="rounded=0;whiteSpace=wrap;html=1;strokeColor=#000000;fillColor=#000000;" parent="1" vertex="1">
          <mxGeometry x="100" y="470" width="640" height="30" as="geometry" />
        </mxCell>
        <mxCell id="NzL9fyNju561TQUgWMmM-6" value="001 000" style="text;html=1;strokeColor=none;fillColor=none;align=center;verticalAlign=middle;whiteSpace=wrap;rounded=0;fontColor=#FFFFFF;" parent="1" vertex="1">
          <mxGeometry x="660" y="475" width="80" height="20" as="geometry" />
        </mxCell>
        <mxCell id="NzL9fyNju561TQUgWMmM-7" value="&amp;gt; Seleccione Herramienta" style="text;html=1;strokeColor=none;fillColor=none;align=center;verticalAlign=middle;whiteSpace=wrap;rounded=0;fontColor=#FFFFFF;" parent="1" vertex="1">
          <mxGeometry x="100" y="475" width="150" height="20" as="geometry" />
        </mxCell>
        <mxCell id="NzL9fyNju561TQUgWMmM-8" value="" style="rounded=0;whiteSpace=wrap;html=1;strokeColor=#000000;fillColor=#FFFFFF;fontColor=#FFFFFF;" parent="1" vertex="1">
          <mxGeometry x="100" y="20" width="110" height="450" as="geometry" />
        </mxCell>
        <mxCell id="NzL9fyNju561TQUgWMmM-9" value="" style="rounded=0;whiteSpace=wrap;html=1;strokeColor=#000000;fillColor=#FFFFFF;fontColor=#FFFFFF;" parent="1" vertex="1">
          <mxGeometry x="210" y="20" width="530" height="30" as="geometry" />
        </mxCell>
        <mxCell id="NzL9fyNju561TQUgWMmM-11" value="" style="shape=mxgraph.bpmn.shape;html=1;verticalLabelPosition=bottom;labelBackgroundColor=#ffffff;verticalAlign=top;align=center;perimeter=rhombusPerimeter;background=gateway;outlineConnect=0;outline=none;symbol=parallelGw;strokeColor=#000000;fillColor=#CC0000;fontColor=#FFFFFF;rotation=45;" parent="1" vertex="1">
          <mxGeometry x="704" y="14" width="42" height="42" as="geometry" />
        </mxCell>
        <mxCell id="NzL9fyNju561TQUgWMmM-13" value="&lt;table border=&quot;1&quot; width=&quot;100%&quot; style=&quot;width: 100% ; height: 100% ; border-collapse: collapse&quot;&gt;&lt;tbody&gt;&lt;tr&gt;&lt;td align=&quot;center&quot;&gt;lapiz&lt;/td&gt;&lt;td align=&quot;center&quot;&gt;Goma&lt;/td&gt;&lt;/tr&gt;&lt;tr&gt;&lt;td&gt;&lt;br&gt;&lt;/td&gt;&lt;td&gt;&lt;br&gt;&lt;/td&gt;&lt;/tr&gt;&lt;tr&gt;&lt;td&gt;&lt;br&gt;&lt;/td&gt;&lt;td&gt;&lt;br&gt;&lt;/td&gt;&lt;/tr&gt;&lt;tr&gt;&lt;td&gt;&lt;br&gt;&lt;/td&gt;&lt;td&gt;&lt;br&gt;&lt;/td&gt;&lt;/tr&gt;&lt;tr&gt;&lt;td&gt;&lt;br&gt;&lt;/td&gt;&lt;td&gt;&lt;br&gt;&lt;/td&gt;&lt;/tr&gt;&lt;tr&gt;&lt;td align=&quot;center&quot;&gt;Value 4&lt;/td&gt;&lt;td align=&quot;center&quot;&gt;Value 5&lt;/td&gt;&lt;/tr&gt;&lt;tr&gt;&lt;td align=&quot;center&quot;&gt;Value 7&lt;/td&gt;&lt;td align=&quot;center&quot;&gt;Value 8&lt;/td&gt;&lt;/tr&gt;&lt;/tbody&gt;&lt;/table&gt;" style="text;html=1;strokeColor=none;fillColor=none;overflow=fill;fontColor=#000000;" parent="1" vertex="1">
          <mxGeometry x="110" y="30" width="90" height="200" as="geometry" />
        </mxCell>
        <mxCell id="YWCkM9Tn2oEFoX5e-vl0-1" value="" style="shape=table;html=1;whiteSpace=wrap;startSize=0;container=1;collapsible=0;childLayout=tableLayout;" parent="1" vertex="1">
          <mxGeometry x="110" y="235" width="90" height="225" as="geometry" />
        </mxCell>
        <mxCell id="YWCkM9Tn2oEFoX5e-vl0-2" value="" style="shape=partialRectangle;html=1;whiteSpace=wrap;collapsible=0;dropTarget=0;pointerEvents=0;fillColor=none;top=0;left=0;bottom=0;right=0;points=[[0,0.5],[1,0.5]];portConstraint=eastwest;" parent="YWCkM9Tn2oEFoX5e-vl0-1" vertex="1">
          <mxGeometry width="90" height="29" as="geometry" />
        </mxCell>
        <mxCell id="YWCkM9Tn2oEFoX5e-vl0-3" value="1" style="shape=partialRectangle;html=1;whiteSpace=wrap;connectable=0;overflow=hidden;top=0;left=0;bottom=0;right=0;fillColor=none;" parent="YWCkM9Tn2oEFoX5e-vl0-2" vertex="1">
          <mxGeometry width="45" height="29" as="geometry" />
        </mxCell>
        <mxCell id="YWCkM9Tn2oEFoX5e-vl0-4" value="2" style="shape=partialRectangle;html=1;whiteSpace=wrap;connectable=0;overflow=hidden;top=0;left=0;bottom=0;right=0;fillColor=#FFFFFF;" parent="YWCkM9Tn2oEFoX5e-vl0-2" vertex="1">
          <mxGeometry x="45" width="45" height="29" as="geometry" />
        </mxCell>
        <mxCell id="YWCkM9Tn2oEFoX5e-vl0-5" value="" style="shape=partialRectangle;html=1;whiteSpace=wrap;collapsible=0;dropTarget=0;pointerEvents=0;fillColor=none;top=0;left=0;bottom=0;right=0;points=[[0,0.5],[1,0.5]];portConstraint=eastwest;" parent="YWCkM9Tn2oEFoX5e-vl0-1" vertex="1">
          <mxGeometry y="29" width="90" height="27" as="geometry" />
        </mxCell>
        <mxCell id="YWCkM9Tn2oEFoX5e-vl0-6" value="3" style="shape=partialRectangle;html=1;whiteSpace=wrap;connectable=0;overflow=hidden;top=0;left=0;bottom=0;right=0;fillColor=#33FF33;" parent="YWCkM9Tn2oEFoX5e-vl0-5" vertex="1">
          <mxGeometry width="45" height="27" as="geometry" />
        </mxCell>
        <mxCell id="YWCkM9Tn2oEFoX5e-vl0-7" value="4" style="shape=partialRectangle;html=1;whiteSpace=wrap;connectable=0;overflow=hidden;top=0;left=0;bottom=0;right=0;fillColor=#0000CC;" parent="YWCkM9Tn2oEFoX5e-vl0-5" vertex="1">
          <mxGeometry x="45" width="45" height="27" as="geometry" />
        </mxCell>
        <mxCell id="YWCkM9Tn2oEFoX5e-vl0-8" value="" style="shape=partialRectangle;html=1;whiteSpace=wrap;collapsible=0;dropTarget=0;pointerEvents=0;fillColor=none;top=0;left=0;bottom=0;right=0;points=[[0,0.5],[1,0.5]];portConstraint=eastwest;" parent="YWCkM9Tn2oEFoX5e-vl0-1" vertex="1">
          <mxGeometry y="56" width="90" height="29" as="geometry" />
        </mxCell>
        <mxCell id="YWCkM9Tn2oEFoX5e-vl0-9" value="5" style="shape=partialRectangle;html=1;whiteSpace=wrap;connectable=0;overflow=hidden;fillColor=none;top=0;left=0;bottom=0;right=0;" parent="YWCkM9Tn2oEFoX5e-vl0-8" vertex="1">
          <mxGeometry width="45" height="29" as="geometry" />
        </mxCell>
        <mxCell id="YWCkM9Tn2oEFoX5e-vl0-10" value="6" style="shape=partialRectangle;html=1;whiteSpace=wrap;connectable=0;overflow=hidden;fillColor=none;top=0;left=0;bottom=0;right=0;" parent="YWCkM9Tn2oEFoX5e-vl0-8" vertex="1">
          <mxGeometry x="45" width="45" height="29" as="geometry" />
        </mxCell>
        <mxCell id="YWCkM9Tn2oEFoX5e-vl0-11" value="" style="shape=partialRectangle;html=1;whiteSpace=wrap;collapsible=0;dropTarget=0;pointerEvents=0;fillColor=none;top=0;left=0;bottom=0;right=0;points=[[0,0.5],[1,0.5]];portConstraint=eastwest;" parent="YWCkM9Tn2oEFoX5e-vl0-1" vertex="1">
          <mxGeometry y="85" width="90" height="28" as="geometry" />
        </mxCell>
        <mxCell id="YWCkM9Tn2oEFoX5e-vl0-12" value="7" style="shape=partialRectangle;html=1;whiteSpace=wrap;connectable=0;overflow=hidden;fillColor=none;top=0;left=0;bottom=0;right=0;" parent="YWCkM9Tn2oEFoX5e-vl0-11" vertex="1">
          <mxGeometry width="45" height="28" as="geometry" />
        </mxCell>
        <mxCell id="YWCkM9Tn2oEFoX5e-vl0-13" value="8" style="shape=partialRectangle;html=1;whiteSpace=wrap;connectable=0;overflow=hidden;fillColor=none;top=0;left=0;bottom=0;right=0;" parent="YWCkM9Tn2oEFoX5e-vl0-11" vertex="1">
          <mxGeometry x="45" width="45" height="28" as="geometry" />
        </mxCell>
        <mxCell id="YWCkM9Tn2oEFoX5e-vl0-14" value="" style="shape=partialRectangle;html=1;whiteSpace=wrap;collapsible=0;dropTarget=0;pointerEvents=0;fillColor=none;top=0;left=0;bottom=0;right=0;points=[[0,0.5],[1,0.5]];portConstraint=eastwest;" parent="YWCkM9Tn2oEFoX5e-vl0-1" vertex="1">
          <mxGeometry y="113" width="90" height="28" as="geometry" />
        </mxCell>
        <mxCell id="YWCkM9Tn2oEFoX5e-vl0-15" value="9" style="shape=partialRectangle;html=1;whiteSpace=wrap;connectable=0;overflow=hidden;fillColor=none;top=0;left=0;bottom=0;right=0;" parent="YWCkM9Tn2oEFoX5e-vl0-14" vertex="1">
          <mxGeometry width="45" height="28" as="geometry" />
        </mxCell>
        <mxCell id="YWCkM9Tn2oEFoX5e-vl0-16" value="10" style="shape=partialRectangle;html=1;whiteSpace=wrap;connectable=0;overflow=hidden;fillColor=none;top=0;left=0;bottom=0;right=0;" parent="YWCkM9Tn2oEFoX5e-vl0-14" vertex="1">
          <mxGeometry x="45" width="45" height="28" as="geometry" />
        </mxCell>
        <mxCell id="YWCkM9Tn2oEFoX5e-vl0-17" value="" style="shape=partialRectangle;html=1;whiteSpace=wrap;collapsible=0;dropTarget=0;pointerEvents=0;fillColor=none;top=0;left=0;bottom=0;right=0;points=[[0,0.5],[1,0.5]];portConstraint=eastwest;" parent="YWCkM9Tn2oEFoX5e-vl0-1" vertex="1">
          <mxGeometry y="141" width="90" height="28" as="geometry" />
        </mxCell>
        <mxCell id="YWCkM9Tn2oEFoX5e-vl0-18" value="11" style="shape=partialRectangle;html=1;whiteSpace=wrap;connectable=0;overflow=hidden;fillColor=none;top=0;left=0;bottom=0;right=0;" parent="YWCkM9Tn2oEFoX5e-vl0-17" vertex="1">
          <mxGeometry width="45" height="28" as="geometry" />
        </mxCell>
        <mxCell id="YWCkM9Tn2oEFoX5e-vl0-19" value="12" style="shape=partialRectangle;html=1;whiteSpace=wrap;connectable=0;overflow=hidden;fillColor=none;top=0;left=0;bottom=0;right=0;" parent="YWCkM9Tn2oEFoX5e-vl0-17" vertex="1">
          <mxGeometry x="45" width="45" height="28" as="geometry" />
        </mxCell>
        <mxCell id="YWCkM9Tn2oEFoX5e-vl0-20" value="" style="shape=partialRectangle;html=1;whiteSpace=wrap;collapsible=0;dropTarget=0;pointerEvents=0;fillColor=none;top=0;left=0;bottom=0;right=0;points=[[0,0.5],[1,0.5]];portConstraint=eastwest;" parent="YWCkM9Tn2oEFoX5e-vl0-1" vertex="1">
          <mxGeometry y="169" width="90" height="28" as="geometry" />
        </mxCell>
        <mxCell id="YWCkM9Tn2oEFoX5e-vl0-21" value="13" style="shape=partialRectangle;html=1;whiteSpace=wrap;connectable=0;overflow=hidden;fillColor=none;top=0;left=0;bottom=0;right=0;" parent="YWCkM9Tn2oEFoX5e-vl0-20" vertex="1">
          <mxGeometry width="45" height="28" as="geometry" />
        </mxCell>
        <mxCell id="YWCkM9Tn2oEFoX5e-vl0-22" value="14" style="shape=partialRectangle;html=1;whiteSpace=wrap;connectable=0;overflow=hidden;fillColor=none;top=0;left=0;bottom=0;right=0;" parent="YWCkM9Tn2oEFoX5e-vl0-20" vertex="1">
          <mxGeometry x="45" width="45" height="28" as="geometry" />
        </mxCell>
        <mxCell id="YWCkM9Tn2oEFoX5e-vl0-23" value="" style="shape=partialRectangle;html=1;whiteSpace=wrap;collapsible=0;dropTarget=0;pointerEvents=0;fillColor=none;top=0;left=0;bottom=0;right=0;points=[[0,0.5],[1,0.5]];portConstraint=eastwest;" parent="YWCkM9Tn2oEFoX5e-vl0-1" vertex="1">
          <mxGeometry y="197" width="90" height="28" as="geometry" />
        </mxCell>
        <mxCell id="YWCkM9Tn2oEFoX5e-vl0-24" value="15" style="shape=partialRectangle;html=1;whiteSpace=wrap;connectable=0;overflow=hidden;fillColor=none;top=0;left=0;bottom=0;right=0;" parent="YWCkM9Tn2oEFoX5e-vl0-23" vertex="1">
          <mxGeometry width="45" height="28" as="geometry" />
        </mxCell>
        <mxCell id="YWCkM9Tn2oEFoX5e-vl0-25" value="16" style="shape=partialRectangle;html=1;whiteSpace=wrap;connectable=0;overflow=hidden;fillColor=none;top=0;left=0;bottom=0;right=0;" parent="YWCkM9Tn2oEFoX5e-vl0-23" vertex="1">
          <mxGeometry x="45" width="45" height="28" as="geometry" />
        </mxCell>
        <mxCell id="fJ8GcN-Jv086YbNyf1OU-1" value="" style="rounded=0;whiteSpace=wrap;html=1;fillColor=none;" vertex="1" parent="1">
          <mxGeometry x="100" y="20" width="10" height="215" as="geometry" />
        </mxCell>
      </root>
    </mxGraphModel>
  </diagram>
</mxfile>
